<?xml version="1.0" encoding="UTF-8" standalone="no"?>
<svg
   xmlns:dc="http://purl.org/dc/elements/1.1/"
   xmlns:cc="http://creativecommons.org/ns#"
   xmlns:rdf="http://www.w3.org/1999/02/22-rdf-syntax-ns#"
   xmlns:svg="http://www.w3.org/2000/svg"
   xmlns="http://www.w3.org/2000/svg"
   xmlns:sodipodi="http://sodipodi.sourceforge.net/DTD/sodipodi-0.dtd"
   xmlns:inkscape="http://www.inkscape.org/namespaces/inkscape"
   width="32"
   height="32"
   viewBox="0 0 32 32"
   version="1.1"
   id="svg4"
   sodipodi:docname="twitter-icon.svg"
   inkscape:version="0.92.3 (2405546, 2018-03-11)">
  <metadata
     id="metadata10">
    <rdf:RDF>
      <cc:Work
         rdf:about="">
        <dc:format>image/svg+xml</dc:format>
        <dc:type
           rdf:resource="http://purl.org/dc/dcmitype/StillImage" />
        <dc:title></dc:title>
      </cc:Work>
    </rdf:RDF>
  </metadata>
  <defs
     id="defs8" />
  <sodipodi:namedview
     pagecolor="#ffffff"
     bordercolor="#666666"
     borderopacity="1"
     objecttolerance="10"
     gridtolerance="10"
     guidetolerance="10"
     inkscape:pageopacity="0"
     inkscape:pageshadow="2"
     inkscape:window-width="826"
     inkscape:window-height="621"
     id="namedview6"
     showgrid="false"
     inkscape:zoom="4.9166667"
     inkscape:cx="23.883762"
     inkscape:cy="5.2120551"
     inkscape:window-x="0"
     inkscape:window-y="0"
     inkscape:window-maximized="0"
     inkscape:current-layer="svg4" />
  <path
     d="m 31.728814,7.0196272 c -1.167356,0.5182373 -2.421967,0.8672542 -3.738712,1.0245763 1.344508,-0.8051187 2.377017,-2.0808814 2.862203,-3.6012204 -1.257254,0.7456271 -2.650678,1.287661 -4.134,1.5798305 -1.185864,-1.2651864 -2.87939,-2.0557627 -4.75139,-2.0557627 -4.202745,0 -7.291017,3.9211526 -6.341796,7.9916951 C 10.216678,11.687729 5.420339,9.0965424 2.2091186,5.1582035 0.50369492,8.0838645 1.324678,11.911153 4.2225763,13.849254 3.157017,13.814881 2.1522712,13.522712 1.2757627,13.034881 c -0.07139,3.01556 2.0901356,5.83678 5.2207119,6.464746 -0.9161695,0.248543 -1.9195932,0.306712 -2.9402034,0.111051 0.8275932,2.585898 3.2310508,4.467153 6.0813559,4.520034 C 6.901017,26.276373 3.4531525,27.234848 0,26.827661 2.8807119,28.674542 6.3034576,29.752 9.9787119,29.752 22.064746,29.752 28.893051,19.544576 28.480576,10.389492 29.752373,9.470678 30.856271,8.3244746 31.728814,7.0196272 Z"
     id="path2"
     inkscape:connector-curvature="0"
     style="stroke-width:1;fill:#080631;fill-opacity:1" />
</svg>
